<svg xmlns="http://www.w3.org/2000/svg" version="1.1" xmlns:xlink="http://www.w3.org/1999/xlink" xmlns:svgjs="http://svgjs.com/svgjs" width="1000" height="1000"><rect width="1000" height="1000" rx="200" ry="200" fill="#030303"></rect><g transform="matrix(3.8461538461538463,0,0,3.8461538461538463,233.30742861821102,130.63396206268897)"><svg xmlns="http://www.w3.org/2000/svg" version="1.1" xmlns:xlink="http://www.w3.org/1999/xlink" xmlns:svgjs="http://svgjs.com/svgjs" width="136.42" height="208"><svg xmlns="http://www.w3.org/2000/svg" viewBox="0 0 136.42 208"><defs><style>.cls-1{fill:#c0fdff;}.cls-2{fill:none;stroke:#c0fdff;stroke-miterlimit:10;stroke-width:6px;}</style></defs><g id="Capa_2" data-name="Capa 2"><g id="OBJECTS"><path class="cls-1" d="M29.72,183.25V165.5h2.49v17.75Zm1.58-4.05.37-3.73,7.84-10h3.06Zm9,4.05-5.64-9.47,2-1.82,6.73,11.29Z"></path><path class="cls-1" d="M50.9,183.44a6.38,6.38,0,0,1-3.29-.82,5.64,5.64,0,0,1-2.18-2.28,7.43,7.43,0,0,1-.77-3.45v-5a7.36,7.36,0,0,1,.77-3.44,5.6,5.6,0,0,1,2.18-2.29,7.07,7.07,0,0,1,6.57,0,5.54,5.54,0,0,1,2.18,2.29,7.24,7.24,0,0,1,.77,3.44v5a7.31,7.31,0,0,1-.77,3.45,5.57,5.57,0,0,1-2.18,2.28A6.36,6.36,0,0,1,50.9,183.44Zm0-2.46a3.46,3.46,0,0,0,2.68-1.1,4.12,4.12,0,0,0,1-2.9v-5.2a4.13,4.13,0,0,0-1-2.91,3.81,3.81,0,0,0-5.36,0,4.14,4.14,0,0,0-1,2.91V177a4.13,4.13,0,0,0,1,2.9A3.46,3.46,0,0,0,50.9,181Z"></path><path class="cls-1" d="M60.92,183.24V165.5h2.26l8.68,13.72-.3.32v-14H74v17.74H71.75l-8.66-13.51.29-.32v13.83Z"></path><path class="cls-1" d="M78.42,183.24V165.5h2.26l8.68,13.72-.29.32v-14h2.46v17.74H89.25L80.6,169.73l.29-.32v13.83Z"></path><path class="cls-1" d="M95.93,183.25V165.5h2.49v17.75Zm1.21-15.38V165.5h10.19v2.37Zm0,7.75v-2.36H106v2.36Zm0,7.63v-2.37h10.19v2.37Z"></path><path class="cls-1" d="M116.68,183.44a6.26,6.26,0,0,1-3.25-.83,5.67,5.67,0,0,1-2.16-2.31,7.5,7.5,0,0,1-.77-3.48V172a7.52,7.52,0,0,1,.77-3.49,5.7,5.7,0,0,1,2.16-2.32,6.35,6.35,0,0,1,3.25-.82,6,6,0,0,1,4.95,2.5,7,7,0,0,1,1.17,2.77h-2.56a3.78,3.78,0,0,0-.77-1.49,3.87,3.87,0,0,0-1.28-1,3.51,3.51,0,0,0-1.51-.35,3.29,3.29,0,0,0-2.63,1.15,4.53,4.53,0,0,0-1,3v4.87a4.51,4.51,0,0,0,1,3,3.32,3.32,0,0,0,2.63,1.15,3.73,3.73,0,0,0,2.19-.74,3.53,3.53,0,0,0,1.37-2.11h2.56a6.85,6.85,0,0,1-1.18,2.77,6.09,6.09,0,0,1-2.13,1.85A6,6,0,0,1,116.68,183.44Z"></path><path class="cls-1" d="M123.89,167.87V165.5h12.53v2.37Zm5,15.38V167h2.49v16.29Z"></path><text svgjs:data="{&quot;leading&quot;:&quot;1.3&quot;}"></text><line class="cls-2" x1="49.47" y1="34.02" x2="49.47" y2="71.05"></line><line class="cls-2" x1="49.47" y1="34.02" x2="49.47" y2="115.25"></line><line class="cls-2" x1="61.04" y1="34.16" x2="61.04" y2="115.25"></line><line class="cls-2" x1="49.47" y1="115.25" x2="49.47" y2="34.02"></line><path class="cls-2" d="M133.2,33.37a71.62,71.62,0,1,0-27.62,105.89"></path><line class="cls-2" x1="61.04" y1="99.68" x2="124.85" y2="41.05"></line><path class="cls-2" d="M97.34,130.64a60.44,60.44,0,1,1,20.52-98.19h0L61,84.73"></path><line class="cls-2" x1="81.5" y1="80.73" x2="133.16" y2="132.39"></line><line class="cls-2" x1="72.67" y1="88.88" x2="114.89" y2="131.11"></line></g></g></svg></svg></g></svg>